<svg width="37" height="37" viewBox="0 0 37 37" fill="none" xmlns="http://www.w3.org/2000/svg">
<path d="M30.7026 9.18604H6.45133C4.77713 9.18604 3.41992 10.5432 3.41992 12.2174V24.3431C3.41992 26.0173 4.77713 27.3745 6.45133 27.3745H30.7026C32.3768 27.3745 33.734 26.0173 33.734 24.3431V12.2174C33.734 10.5432 32.3768 9.18604 30.7026 9.18604Z" fill="#FF6F00"/>
<path d="M18.577 21.3117C20.2512 21.3117 21.6084 19.9545 21.6084 18.2803C21.6084 16.6061 20.2512 15.2489 18.577 15.2489C16.9028 15.2489 15.5456 16.6061 15.5456 18.2803C15.5456 19.9545 16.9028 21.3117 18.577 21.3117Z" fill="#FF6F00"/>
<path d="M9.48274 18.2803H9.4979ZM27.6712 18.2803H27.6863Z" fill="#FF6F00"/>
<path d="M9.48274 18.2803H9.4979M27.6712 18.2803H27.6863M6.45133 9.18604H30.7026C32.3768 9.18604 33.734 10.5432 33.734 12.2174V24.3431C33.734 26.0173 32.3768 27.3745 30.7026 27.3745H6.45133C4.77713 27.3745 3.41992 26.0173 3.41992 24.3431V12.2174C3.41992 10.5432 4.77713 9.18604 6.45133 9.18604ZM21.6084 18.2803C21.6084 19.9545 20.2512 21.3117 18.577 21.3117C16.9028 21.3117 15.5456 19.9545 15.5456 18.2803C15.5456 16.6061 16.9028 15.2489 18.577 15.2489C20.2512 15.2489 21.6084 16.6061 21.6084 18.2803Z" stroke="white" stroke-width="1.5157" stroke-linecap="round" stroke-linejoin="round"/>
</svg>
