<?xml version="1.0" encoding="UTF-8"?>
<!DOCTYPE svg PUBLIC "-//W3C//DTD SVG 1.1//EN" "http://www.w3.org/Graphics/SVG/1.1/DTD/svg11.dtd">
<svg xmlns="http://www.w3.org/2000/svg" version="1.1" width="132px" height="133px" style="shape-rendering:geometricPrecision; text-rendering:geometricPrecision; image-rendering:optimizeQuality; fill-rule:evenodd; clip-rule:evenodd" xmlns:xlink="http://www.w3.org/1999/xlink">
<g><path style="opacity:0.711" fill="#ffe084" d="M 58.5,-0.5 C 63.5,-0.5 68.5,-0.5 73.5,-0.5C 73.5,0.166667 73.8333,0.5 74.5,0.5C 68.6103,3.82303 62.6103,4.15636 56.5,1.5C 57.1667,0.833333 57.8333,0.166667 58.5,-0.5 Z"/></g>
<g><path style="opacity:0.829" fill="#ffdf7f" d="M 74.5,0.5 C 76.8816,1.3507 78.8816,2.68403 80.5,4.5C 77.6552,6.22433 74.6552,7.55766 71.5,8.5C 67.8505,7.27222 64.1838,7.27222 60.5,8.5C 57.0689,7.86529 53.7356,6.86529 50.5,5.5C 51.8527,3.26205 53.8527,1.92872 56.5,1.5C 62.6103,4.15636 68.6103,3.82303 74.5,0.5 Z"/></g>
<g><path style="opacity:0.805" fill="#ffde79" d="M 80.5,4.5 C 81.8333,5.16667 82.8333,6.16667 83.5,7.5C 81.6387,9.56159 79.3053,10.8949 76.5,11.5C 74.816,10.4728 73.1494,9.47283 71.5,8.5C 74.6552,7.55766 77.6552,6.22433 80.5,4.5 Z"/></g>
<g><path style="opacity:0.774" fill="#ffdd79" d="M 50.5,5.5 C 53.7356,6.86529 57.0689,7.86529 60.5,8.5C 58.816,9.52717 57.1494,10.5272 55.5,11.5C 53.1992,10.9396 50.8659,10.4396 48.5,10C 47.944,9.61742 47.6107,9.11742 47.5,8.5C 48.1667,7.16667 49.1667,6.16667 50.5,5.5 Z"/></g>
<g><path style="opacity:0.803" fill="#ffdc73" d="M 83.5,7.5 C 84.8897,8.89928 85.8897,10.5659 86.5,12.5C 84.2088,13.765 81.8754,15.0983 79.5,16.5C 78.925,14.5887 77.925,12.922 76.5,11.5C 79.3053,10.8949 81.6387,9.56159 83.5,7.5 Z"/></g>
<g><path style="opacity:0.778" fill="#ffdc73" d="M 47.5,8.5 C 47.6107,9.11742 47.944,9.61742 48.5,10C 50.8659,10.4396 53.1992,10.9396 55.5,11.5C 54.5254,13.7952 53.1921,15.7952 51.5,17.5C 49.3649,15.9291 47.0316,14.5957 44.5,13.5C 45.6923,11.8869 46.6923,10.2202 47.5,8.5 Z"/></g>
<g><path style="opacity:0.815" fill="#ffdb6d" d="M 86.5,12.5 C 87.4918,14.4561 88.4918,16.4561 89.5,18.5C 87.0846,19.3052 84.7513,20.3052 82.5,21.5C 81.2485,19.9991 80.2485,18.3325 79.5,16.5C 81.8754,15.0983 84.2088,13.765 86.5,12.5 Z"/></g>
<g><path style="opacity:0.791" fill="#ffdb6d" d="M 44.5,13.5 C 47.0316,14.5957 49.3649,15.9291 51.5,17.5C 51.6085,19.5138 50.9418,21.1805 49.5,22.5C 46.9959,21.4161 44.6626,20.0828 42.5,18.5C 43.1667,16.8333 43.8333,15.1667 44.5,13.5 Z"/></g>
<g><path style="opacity:0.798" fill="#ffd967" d="M 42.5,18.5 C 44.6626,20.0828 46.9959,21.4161 49.5,22.5C 48.8772,24.7105 47.8772,26.7105 46.5,28.5C 43.6689,27.9213 41.3356,26.588 39.5,24.5C 40.1302,22.2504 41.1302,20.2504 42.5,18.5 Z"/></g>
<g><path style="opacity:0.795" fill="#ffd967" d="M 89.5,18.5 C 90.4861,20.4261 91.4861,22.4261 92.5,24.5C 90.0846,25.3052 87.7513,26.3052 85.5,27.5C 83.461,26.089 82.461,24.089 82.5,21.5C 84.7513,20.3052 87.0846,19.3052 89.5,18.5 Z"/></g>
<g><path style="opacity:0.779" fill="#ffd760" d="M 39.5,24.5 C 41.3356,26.588 43.6689,27.9213 46.5,28.5C 46.047,30.5652 45.047,32.2318 43.5,33.5C 41.4418,32.0669 39.1085,31.4003 36.5,31.5C 36.9348,28.8427 37.9348,26.5093 39.5,24.5 Z"/></g>
<g><path style="opacity:0.803" fill="#ffd760" d="M 92.5,24.5 C 93.5375,25.9303 94.2041,27.597 94.5,29.5C 92.4907,31.0652 90.1573,32.0652 87.5,32.5C 86.0687,31.2196 85.4021,29.5529 85.5,27.5C 87.7513,26.3052 90.0846,25.3052 92.5,24.5 Z"/></g>
<g><path style="opacity:0.803" fill="#ffd65a" d="M 94.5,29.5 C 96.2132,30.6354 96.8799,32.302 96.5,34.5C 94.8102,36.3417 92.8102,37.675 90.5,38.5C 89.1302,36.7496 88.1302,34.7496 87.5,32.5C 90.1573,32.0652 92.4907,31.0652 94.5,29.5 Z"/></g>
<g><path style="opacity:0.824" fill="#ffd65a" d="M 36.5,31.5 C 39.1085,31.4003 41.4418,32.0669 43.5,33.5C 43.2041,35.403 42.5375,37.0697 41.5,38.5C 38.7282,38.2413 36.3949,37.2413 34.5,35.5C 34.2291,33.6203 34.8958,32.287 36.5,31.5 Z"/></g>
<g><path style="opacity:0.758" fill="#ffd454" d="M 96.5,34.5 C 98.2503,35.6594 99.2503,37.326 99.5,39.5C 96.6733,40.1084 94.0067,41.1084 91.5,42.5C 91.1667,41.1667 90.8333,39.8333 90.5,38.5C 92.8102,37.675 94.8102,36.3417 96.5,34.5 Z"/></g>
<g><path style="opacity:0.768" fill="#ffd454" d="M 34.5,35.5 C 36.3949,37.2413 38.7282,38.2413 41.5,38.5C 41.2671,40.0618 40.6005,41.3951 39.5,42.5C 36.8877,41.6295 34.221,40.9628 31.5,40.5C 32.1103,38.5659 33.1103,36.8993 34.5,35.5 Z"/></g>
<g><path style="opacity:0.262" fill="#ffd559" d="M 84.5,38.5 C 79.5784,41.6728 74.0784,43.3395 68,43.5C 66.9302,43.472 66.0968,43.1386 65.5,42.5C 71.3759,39.1426 77.7093,37.8092 84.5,38.5 Z"/></g>
<g><path style="opacity:0.733" fill="#ffd454" d="M 84.5,38.5 C 85.4511,39.9187 85.7845,41.5853 85.5,43.5C 77.6008,45.1541 69.6008,46.1541 61.5,46.5C 62.5,44.8333 63.8333,43.5 65.5,42.5C 66.0968,43.1386 66.9302,43.472 68,43.5C 74.0784,43.3395 79.5784,41.6728 84.5,38.5 Z"/></g>
<g><path style="opacity:0.803" fill="#ffd34d" d="M 99.5,39.5 C 100.6,40.6049 101.267,41.9382 101.5,43.5C 98.779,43.9628 96.1123,44.6295 93.5,45.5C 92.8333,44.5 92.1667,43.5 91.5,42.5C 94.0067,41.1084 96.6733,40.1084 99.5,39.5 Z"/></g>
<g><path style="opacity:0.794" fill="#ffd34d" d="M 31.5,40.5 C 34.221,40.9628 36.8877,41.6295 39.5,42.5C 39.3404,44.153 38.6737,45.4863 37.5,46.5C 35.0392,45.469 32.3725,44.8023 29.5,44.5C 30.1667,43.1667 30.8333,41.8333 31.5,40.5 Z"/></g>
<g><path style="opacity:0.848" fill="#ffd34e" d="M 85.5,43.5 C 85.5,44.5 85.5,45.5 85.5,46.5C 78.4063,47.8998 71.2396,48.8998 64,49.5C 62.2933,49.4915 60.7933,49.1582 59.5,48.5C 59.5,47.1667 60.1667,46.5 61.5,46.5C 69.6008,46.1541 77.6008,45.1541 85.5,43.5 Z"/></g>
<g><path style="opacity:0.799" fill="#ffd147" d="M 101.5,43.5 C 102.404,44.209 102.737,45.209 102.5,46.5C 99.7938,46.5751 97.1272,46.9084 94.5,47.5C 94.1667,46.8333 93.8333,46.1667 93.5,45.5C 96.1123,44.6295 98.779,43.9628 101.5,43.5 Z"/></g>
<g><path style="opacity:0.818" fill="#ffd147" d="M 29.5,44.5 C 32.3725,44.8023 35.0392,45.469 37.5,46.5C 37.1667,47.1667 36.8333,47.8333 36.5,48.5C 33.7334,48.1417 31.0667,47.475 28.5,46.5C 28.3284,45.5084 28.6618,44.8417 29.5,44.5 Z"/></g>
<g><path style="opacity:0.765" fill="#ffd041" d="M 28.5,46.5 C 31.0667,47.475 33.7334,48.1417 36.5,48.5C 36.4431,49.609 36.1098,50.609 35.5,51.5C 32.9333,50.525 30.2666,49.8583 27.5,49.5C 27.5569,48.391 27.8902,47.391 28.5,46.5 Z"/></g>
<g><path style="opacity:0.864" fill="#ffd147" d="M 85.5,46.5 C 85.5,47.1667 85.5,47.8333 85.5,48.5C 76.044,51.0194 66.3774,52.0194 56.5,51.5C 57.1667,50.1667 58.1667,49.1667 59.5,48.5C 60.7933,49.1582 62.2933,49.4915 64,49.5C 71.2396,48.8998 78.4063,47.8998 85.5,46.5 Z"/></g>
<g><path style="opacity:0.815" fill="#ffd041" d="M 102.5,46.5 C 103.338,46.8417 103.672,47.5084 103.5,48.5C 100.904,49.2653 98.2372,49.5987 95.5,49.5C 94.6618,49.1583 94.3284,48.4916 94.5,47.5C 97.1272,46.9084 99.7938,46.5751 102.5,46.5 Z"/></g>
<g><path style="opacity:0.776" fill="#ffd041" d="M 85.5,48.5 C 85.5,49.5 85.5,50.5 85.5,51.5C 80.4526,52.0069 75.4526,52.8403 70.5,54C 65.3158,54.8163 60.3158,54.6497 55.5,53.5C 55.3284,52.5084 55.6618,51.8417 56.5,51.5C 66.3774,52.0194 76.044,51.0194 85.5,48.5 Z"/></g>
<g><path style="opacity:0.831" fill="#ffce3b" d="M 103.5,48.5 C 104.338,48.8417 104.672,49.5084 104.5,50.5C 102.285,51.2679 99.9521,51.9346 97.5,52.5C 96.5987,51.7095 95.9321,50.7095 95.5,49.5C 98.2372,49.5987 100.904,49.2653 103.5,48.5 Z"/></g>
<g><path style="opacity:0.805" fill="#ffce3b" d="M 27.5,49.5 C 30.2666,49.8583 32.9333,50.525 35.5,51.5C 35.1667,52.5 34.5,53.1667 33.5,53.5C 30.8333,52.8333 28.1667,52.1667 25.5,51.5C 25.8333,50.5 26.5,49.8333 27.5,49.5 Z"/></g>
<g><path style="opacity:0.817" fill="#ffcd34" d="M 104.5,50.5 C 105.345,51.6715 106.011,53.0048 106.5,54.5C 103.763,54.4013 101.096,54.7347 98.5,55.5C 97.596,54.791 97.2627,53.791 97.5,52.5C 99.9521,51.9346 102.285,51.2679 104.5,50.5 Z"/></g>
<g><path style="opacity:0.789" fill="#ffcd34" d="M 25.5,51.5 C 28.1667,52.1667 30.8333,52.8333 33.5,53.5C 33.5674,54.9587 33.2341,56.2921 32.5,57.5C 30.0075,56.2264 27.3408,55.5597 24.5,55.5C 24.8333,54.1667 25.1667,52.8333 25.5,51.5 Z"/></g>
<g><path style="opacity:0.489" fill="#ffce3b" d="M 85.5,51.5 C 85.38,52.5862 84.7133,53.2528 83.5,53.5C 79.6983,54.1248 76.0316,55.1248 72.5,56.5C 66.1589,57.7791 59.8256,57.7791 53.5,56.5C 53.427,54.9731 54.0937,53.9731 55.5,53.5C 60.3158,54.6497 65.3158,54.8163 70.5,54C 75.4526,52.8403 80.4526,52.0069 85.5,51.5 Z"/></g>
<g><path style="opacity:0.768" fill="#ffcb2e" d="M 106.5,54.5 C 107.401,55.2905 108.068,56.2905 108.5,57.5C 106.143,57.3367 103.81,57.5034 101.5,58C 100.944,58.3826 100.611,58.8826 100.5,59.5C 99.3263,58.4863 98.6596,57.153 98.5,55.5C 101.096,54.7347 103.763,54.4013 106.5,54.5 Z"/></g>
<g><path style="opacity:0.794" fill="#ffcb2e" d="M 24.5,55.5 C 27.3408,55.5597 30.0075,56.2264 32.5,57.5C 32.1667,58.5 31.5,59.1667 30.5,59.5C 27.8333,59.1667 25.1667,58.8333 22.5,58.5C 22.427,56.9731 23.0937,55.9731 24.5,55.5 Z"/></g>
<g><path style="opacity:0.623" fill="#ffcd35" d="M 53.5,56.5 C 59.8256,57.7791 66.1589,57.7791 72.5,56.5C 71.5,57.8333 70.5,59.1667 69.5,60.5C 63.8333,60.5 58.1667,60.5 52.5,60.5C 53.2341,59.2921 53.5674,57.9587 53.5,56.5 Z"/></g>
<g><path style="opacity:0.817" fill="#ffc928" d="M 108.5,57.5 C 108.557,58.609 108.89,59.609 109.5,60.5C 106.505,60.2938 103.838,60.9605 101.5,62.5C 100.596,61.791 100.263,60.791 100.5,59.5C 100.611,58.8826 100.944,58.3826 101.5,58C 103.81,57.5034 106.143,57.3367 108.5,57.5 Z"/></g>
<g><path style="opacity:0.806" fill="#ffca28" d="M 22.5,58.5 C 25.1667,58.8333 27.8333,59.1667 30.5,59.5C 30.5674,60.9587 30.2341,62.2921 29.5,63.5C 26.885,62.7094 24.2184,62.0427 21.5,61.5C 21.5569,60.391 21.8902,59.391 22.5,58.5 Z"/></g>
<g><path style="opacity:0.712" fill="#ffcb2e" d="M 52.5,60.5 C 58.1667,60.5 63.8333,60.5 69.5,60.5C 69.4431,61.609 69.1098,62.609 68.5,63.5C 63.1948,64.4445 57.8615,64.4445 52.5,63.5C 52.5,62.5 52.5,61.5 52.5,60.5 Z"/></g>
<g><path style="opacity:0.785" fill="#ffc822" d="M 109.5,60.5 C 110.401,61.2905 111.068,62.2905 111.5,63.5C 108.885,64.2906 106.218,64.9573 103.5,65.5C 102.599,64.7095 101.932,63.7095 101.5,62.5C 103.838,60.9605 106.505,60.2938 109.5,60.5 Z"/></g>
<g><path style="opacity:0.821" fill="#ffc822" d="M 21.5,61.5 C 24.2184,62.0427 26.885,62.7094 29.5,63.5C 28.8333,64.5 28.1667,65.5 27.5,66.5C 24.7938,66.4249 22.1272,66.0916 19.5,65.5C 19.6596,63.847 20.3263,62.5137 21.5,61.5 Z"/></g>
<g><path style="opacity:0.67" fill="#ffca28" d="M 52.5,63.5 C 57.8615,64.4445 63.1948,64.4445 68.5,63.5C 68.5,64.1667 68.5,64.8333 68.5,65.5C 63.1667,66.8333 57.8333,66.8333 52.5,65.5C 52.5,64.8333 52.5,64.1667 52.5,63.5 Z"/></g>
<g><path style="opacity:0.78" fill="#ffc61b" d="M 111.5,63.5 C 111.833,64.8333 112.167,66.1667 112.5,67.5C 109.721,67.2786 107.054,67.612 104.5,68.5C 103.596,67.791 103.263,66.791 103.5,65.5C 106.218,64.9573 108.885,64.2906 111.5,63.5 Z"/></g>
<g><path style="opacity:0.488" fill="#ffc822" d="M 52.5,65.5 C 57.8333,66.8333 63.1667,66.8333 68.5,65.5C 72.5138,65.3345 76.5138,65.5012 80.5,66C 81.4158,66.2784 82.0825,66.7784 82.5,67.5C 71.2173,69.6083 59.884,69.9417 48.5,68.5C 48.6941,66.0882 50.0274,65.0882 52.5,65.5 Z"/></g>
<g><path style="opacity:0.78" fill="#ffc61b" d="M 82.5,67.5 C 82.5,68.1667 82.5,68.8333 82.5,69.5C 70.5648,71.6049 58.5648,71.9382 46.5,70.5C 46.8333,69.5 47.5,68.8333 48.5,68.5C 59.884,69.9417 71.2173,69.6083 82.5,67.5 Z"/></g>
<g><path style="opacity:0.837" fill="#ffc515" d="M 112.5,67.5 C 113.5,67.8333 114.167,68.5 114.5,69.5C 111.518,69.9629 108.518,70.2962 105.5,70.5C 105.167,69.8333 104.833,69.1667 104.5,68.5C 107.054,67.612 109.721,67.2786 112.5,67.5 Z"/></g>
<g><path style="opacity:0.789" fill="#ffc517" d="M 19.5,65.5 C 22.1272,66.0916 24.7938,66.4249 27.5,66.5C 27.1075,68.2838 26.4408,69.9505 25.5,71.5C 22.6085,70.5975 19.6085,70.2641 16.5,70.5C 17.2632,68.6316 18.2632,66.9649 19.5,65.5 Z"/></g>
<g><path style="opacity:0.839" fill="#ffc515" d="M 82.5,69.5 C 82.5,70.1667 82.5,70.8333 82.5,71.5C 70.4903,73.0117 58.4903,73.345 46.5,72.5C 46.5,71.8333 46.5,71.1667 46.5,70.5C 58.5648,71.9382 70.5648,71.6049 82.5,69.5 Z"/></g>
<g><path style="opacity:0.833" fill="#ffc310" d="M 16.5,70.5 C 19.6085,70.2641 22.6085,70.5975 25.5,71.5C 25.1667,72.1667 24.8333,72.8333 24.5,73.5C 21.9039,72.7347 19.2372,72.4013 16.5,72.5C 16.5,71.8333 16.5,71.1667 16.5,70.5 Z"/></g>
<g><path style="opacity:0.875" fill="#ffc30f" d="M 82.5,71.5 C 82.5,72.1667 82.5,72.8333 82.5,73.5C 70.4396,74.665 58.4396,74.665 46.5,73.5C 46.5,73.1667 46.5,72.8333 46.5,72.5C 58.4903,73.345 70.4903,73.0117 82.5,71.5 Z"/></g>
<g><path style="opacity:0.772" fill="#ffc20b" d="M 114.5,69.5 C 114.833,70.8333 115.167,72.1667 115.5,73.5C 112.904,74.2653 110.237,74.5987 107.5,74.5C 106.326,73.4863 105.66,72.153 105.5,70.5C 108.518,70.2962 111.518,69.9629 114.5,69.5 Z"/></g>
<g><path style="opacity:0.816" fill="#ffc209" d="M 16.5,72.5 C 19.2372,72.4013 21.9039,72.7347 24.5,73.5C 24.1667,74.1667 23.8333,74.8333 23.5,75.5C 20.4824,75.2962 17.4824,74.9629 14.5,74.5C 14.8333,73.5 15.5,72.8333 16.5,72.5 Z"/></g>
<g><path style="opacity:0.837" fill="#ffc209" d="M 46.5,73.5 C 58.4396,74.665 70.4396,74.665 82.5,73.5C 82.5,74.1667 82.5,74.8333 82.5,75.5C 70.1605,76.6936 57.8272,76.6936 45.5,75.5C 45.3284,74.5084 45.6618,73.8417 46.5,73.5 Z"/></g>
<g><path style="opacity:0.775" fill="#ffbe00" d="M 115.5,73.5 C 117.39,76.2718 119.057,79.2718 120.5,82.5C 117.5,82.5 114.5,82.5 111.5,82.5C 109.659,80.1515 108.326,77.4848 107.5,74.5C 110.237,74.5987 112.904,74.2653 115.5,73.5 Z"/></g>
<g><path style="opacity:0.822" fill="#ffbe00" d="M 14.5,74.5 C 17.4824,74.9629 20.4824,75.2962 23.5,75.5C 22.1667,78.1667 20.8333,80.8333 19.5,83.5C 16.3915,83.7359 13.3915,83.4025 10.5,82.5C 12.3605,80.1123 13.6939,77.4456 14.5,74.5 Z"/></g>
<g><path style="opacity:0.608" fill="#ffbe00" d="M 45.5,75.5 C 57.8272,76.6936 70.1605,76.6936 82.5,75.5C 82.822,77.7224 82.1554,79.5557 80.5,81C 76.5138,81.4988 72.5138,81.6655 68.5,81.5C 68.5,82.5 68.5,83.5 68.5,84.5C 63.1667,84.5 57.8333,84.5 52.5,84.5C 52.5,83.5 52.5,82.5 52.5,81.5C 50.1667,81.5 47.8333,81.5 45.5,81.5C 45.5,79.5 45.5,77.5 45.5,75.5 Z"/></g>
<g><path style="opacity:0.791" fill="#ffb800" d="M 10.5,82.5 C 13.3915,83.4025 16.3915,83.7359 19.5,83.5C 17.4829,87.5342 15.4829,91.5342 13.5,95.5C 10.7131,94.5233 7.7131,94.19 4.5,94.5C 6.69095,90.5927 8.69095,86.5927 10.5,82.5 Z"/></g>
<g><path style="opacity:0.812" fill="#ffb800" d="M 111.5,82.5 C 114.5,82.5 117.5,82.5 120.5,82.5C 122.354,86.0531 124.021,89.7197 125.5,93.5C 122.5,93.5 119.5,93.5 116.5,93.5C 114.597,90.0211 112.93,86.3544 111.5,82.5 Z"/></g>
<g><path style="opacity:0.703" fill="#ffb800" d="M 52.5,84.5 C 57.8333,84.5 63.1667,84.5 68.5,84.5C 68.5,87.5 68.5,90.5 68.5,93.5C 63.1667,93.5 57.8333,93.5 52.5,93.5C 52.5,90.5 52.5,87.5 52.5,84.5 Z"/></g>
<g><path style="opacity:0.703" fill="#ffb100" d="M 52.5,93.5 C 57.8333,93.5 63.1667,93.5 68.5,93.5C 68.5,97.1667 68.5,100.833 68.5,104.5C 63.1667,104.5 57.8333,104.5 52.5,104.5C 52.5,100.833 52.5,97.1667 52.5,93.5 Z"/></g>
<g><path style="opacity:0.799" fill="#ffb200" d="M 116.5,93.5 C 119.5,93.5 122.5,93.5 125.5,93.5C 128.641,98.2683 130.308,103.602 130.5,109.5C 127.904,108.735 125.237,108.401 122.5,108.5C 120.767,103.372 118.767,98.3716 116.5,93.5 Z"/></g>
<g><path style="opacity:0.801" fill="#ffb200" d="M 4.5,94.5 C 7.7131,94.19 10.7131,94.5233 13.5,95.5C 11.318,99.6657 9.65129,103.999 8.5,108.5C 5.76275,108.401 3.09609,108.735 0.5,109.5C 0.668587,104.113 2.00192,99.1134 4.5,94.5 Z"/></g>
<g><path style="opacity:0.703" fill="#ffab00" d="M 52.5,104.5 C 57.8333,104.5 63.1667,104.5 68.5,104.5C 68.5,107.833 68.5,111.167 68.5,114.5C 63.1667,114.5 57.8333,114.5 52.5,114.5C 52.5,111.167 52.5,107.833 52.5,104.5 Z"/></g>
<g><path style="opacity:0.822" fill="#ffab00" d="M 8.5,108.5 C 8.92899,112.237 10.2623,115.57 12.5,118.5C 10.22,120.223 7.5533,120.889 4.5,120.5C 3.21009,119.942 2.37675,118.942 2,117.5C 1.60487,114.793 1.10487,112.127 0.5,109.5C 3.09609,108.735 5.76275,108.401 8.5,108.5 Z"/></g>
<g><path style="opacity:0.797" fill="#ffab00" d="M 122.5,108.5 C 125.237,108.401 127.904,108.735 130.5,109.5C 130.427,114.073 129.093,118.073 126.5,121.5C 123.833,120.833 121.167,120.167 118.5,119.5C 120.591,116.155 121.924,112.488 122.5,108.5 Z"/></g>
<g><path style="opacity:0.691" fill="#ffa500" d="M 52.5,114.5 C 57.8333,114.5 63.1667,114.5 68.5,114.5C 68.5,117.167 68.5,119.833 68.5,122.5C 63.2197,121.339 57.8864,121.339 52.5,122.5C 52.5,119.833 52.5,117.167 52.5,114.5 Z"/></g>
<g><path style="opacity:0.768" fill="#ffa500" d="M 12.5,118.5 C 15.1268,120.977 18.1268,122.644 21.5,123.5C 17.3268,124.358 12.9935,125.024 8.5,125.5C 6.41311,124.415 5.07978,122.749 4.5,120.5C 7.5533,120.889 10.22,120.223 12.5,118.5 Z"/></g>
<g><path style="opacity:0.72" fill="#ffa500" d="M 118.5,119.5 C 121.167,120.167 123.833,120.833 126.5,121.5C 125.92,123.749 124.587,125.415 122.5,126.5C 117.209,125.238 111.875,124.238 106.5,123.5C 111.007,123.553 115.007,122.22 118.5,119.5 Z"/></g>
<g><path style="opacity:0.786" fill="#ff9f00" d="M 68.5,122.5 C 80.989,123.495 93.6557,123.829 106.5,123.5C 111.875,124.238 117.209,125.238 122.5,126.5C 122.027,127.906 121.027,128.573 119.5,128.5C 84.1145,124.639 48.7811,124.639 13.5,128.5C 11.0672,128.727 9.40058,127.727 8.5,125.5C 12.9935,125.024 17.3268,124.358 21.5,123.5C 32.0135,123.828 42.3468,123.494 52.5,122.5C 57.8864,121.339 63.2197,121.339 68.5,122.5 Z"/></g>
<g><path style="opacity:0.936" fill="#ff9800" d="M 119.5,128.5 C 118.4,129.558 117.066,130.392 115.5,131C 110.845,131.499 106.179,131.666 101.5,131.5C 99.7078,130.691 97.7078,130.191 95.5,130C 84.66,129.633 73.8267,129.133 63,128.5C 50.947,128.792 39.1137,129.792 27.5,131.5C 23.8183,131.665 20.1516,131.499 16.5,131C 15.0577,130.623 14.0577,129.79 13.5,128.5C 48.7811,124.639 84.1145,124.639 119.5,128.5 Z"/></g>
<g><path style="opacity:0.782" fill="#ff9300" d="M 101.5,131.5 C 76.8333,131.5 52.1667,131.5 27.5,131.5C 39.1137,129.792 50.947,128.792 63,128.5C 73.8267,129.133 84.66,129.633 95.5,130C 97.7078,130.191 99.7078,130.691 101.5,131.5 Z"/></g>
</svg>
